<svg width="1412" height="996" viewBox="0 0 1412 996" fill="none" xmlns="http://www.w3.org/2000/svg">
<g filter="url(#filter0_dd_32_634)">
<rect x="18.2469" y="12.1645" width="1375.51" height="959.353" rx="20" fill="#FBBC05" fill-opacity="0.49" shape-rendering="crispEdges"/>
<rect x="18.2469" y="12.1645" width="1375.51" height="959.353" rx="20" fill="url(#paint0_radial_32_634)" shape-rendering="crispEdges"/>
<rect x="18.7469" y="12.6645" width="1374.51" height="958.353" rx="19.5" stroke="url(#paint1_linear_32_634)" shape-rendering="crispEdges"/>
<rect x="1233.69" y="891.488" width="110.04" height="40.0147" rx="20" fill="#191818"/>
<path d="M1306.72 915.817H1311.56C1313.03 915.817 1314.22 916.963 1314.22 918.378V923.5M1314.22 899.491V904.613C1314.22 906.027 1313.03 907.174 1311.56 907.174H1306.72M1330.73 915.817H1325.89C1324.42 915.817 1323.23 916.963 1323.23 918.378V923.5M1323.23 899.491V904.613C1323.23 906.027 1324.42 907.174 1325.89 907.174H1330.73" stroke="white" stroke-width="2.00074" stroke-linecap="round"/>
<path d="M1259.71 923.5H1253.71C1252.05 923.5 1250.71 922.156 1250.71 920.499L1250.71 902.492C1250.71 900.835 1252.05 899.491 1253.71 899.491H1267.21C1268.87 899.491 1270.22 900.835 1270.22 902.492V910.745M1268.46 922.985V918.741M1268.46 918.741V914.497M1268.46 918.741L1264.21 918.741M1268.46 918.741L1272.7 918.741" stroke="white" stroke-width="2.00074" stroke-linecap="round" stroke-linejoin="round"/>
<mask id="path-6-inside-1_32_634" fill="white">
<path d="M1087.64 38.1741C1087.64 27.6768 1096.15 19.1671 1106.65 19.1671H1328.73C1339.23 19.1671 1347.74 27.6768 1347.74 38.1741C1347.74 48.6714 1339.23 57.1811 1328.73 57.1811H1106.65C1096.15 57.1811 1087.64 48.6714 1087.64 38.1741Z"/>
</mask>
<path d="M1087.64 38.1741C1087.64 27.6768 1096.15 19.1671 1106.65 19.1671H1328.73C1339.23 19.1671 1347.74 27.6768 1347.74 38.1741C1347.74 48.6714 1339.23 57.1811 1328.73 57.1811H1106.65C1096.15 57.1811 1087.64 48.6714 1087.64 38.1741Z" fill="#0A0A0A"/>
<path d="M1087.64 38.1741M1347.74 38.1741M1347.74 38.1741M1087.64 38.1741M1106.65 19.1671V20.1675H1328.73V19.1671V18.1667H1106.65V19.1671ZM1347.74 38.1741M1328.73 57.1811V56.1807H1106.65V57.1811V58.1814H1328.73V57.1811ZM1087.64 38.1741M1106.65 57.1811V56.1807C1096.7 56.1807 1088.64 48.1189 1088.64 38.1741H1087.64H1086.64C1086.64 49.2238 1095.6 58.1814 1106.65 58.1814V57.1811ZM1347.74 38.1741H1346.74C1346.74 48.1189 1338.67 56.1807 1328.73 56.1807V57.1811V58.1814C1339.78 58.1814 1348.74 49.2238 1348.74 38.1741H1347.74ZM1328.73 19.1671V20.1675C1338.67 20.1675 1346.74 28.2293 1346.74 38.1741H1347.74H1348.74C1348.74 27.1243 1339.78 18.1667 1328.73 18.1667V19.1671ZM1106.65 19.1671V18.1667C1095.6 18.1667 1086.64 27.1243 1086.64 38.1741H1087.64H1088.64C1088.64 28.2293 1096.7 20.1675 1106.65 20.1675V19.1671Z" fill="#242424" mask="url(#path-6-inside-1_32_634)"/>
<path d="M1284.71 38.1741C1284.71 29.8868 1291.43 23.1686 1299.72 23.1686H1327.73C1336.02 23.1686 1342.73 29.8868 1342.73 38.1741C1342.73 46.4614 1336.02 53.1796 1327.73 53.1796H1299.72C1291.43 53.1796 1284.71 46.4614 1284.71 38.1741Z" fill="white"/>
<path d="M1313.86 34.2143H1310.42M1318.57 41.1586L1324.38 44.0226C1324.99 44.3895 1325.62 44.1733 1325.6 43.4081L1325.56 33.2861C1325.51 32.4553 1325.02 32.2286 1324.3 32.6126L1318.55 35.2237M1305.28 46.3021H1315.73C1317.29 46.3021 1318.54 45.058 1318.54 43.5233L1318.57 39.9592L1318.54 32.8249C1318.54 31.2902 1317.29 30.0461 1315.73 30.0461H1305.28C1303.73 30.0461 1302.47 31.2902 1302.47 32.8249V43.5233C1302.47 45.058 1303.73 46.3021 1305.28 46.3021Z" stroke="black" stroke-width="2.00074" stroke-linecap="round" stroke-linejoin="round"/>
<path d="M1195.13 46.6107C1194.74 47.0014 1194.74 47.6348 1195.13 48.0254C1195.52 48.4161 1196.15 48.4161 1196.54 48.0254L1195.84 47.3181L1195.13 46.6107ZM1201.46 41.691L1202.17 40.9836C1201.78 40.593 1201.15 40.593 1200.76 40.9836L1201.46 41.691ZM1204.28 44.5045L1203.57 45.2119C1203.96 45.6026 1204.59 45.6026 1204.98 45.2119L1204.28 44.5045ZM1210.61 38.1741L1211.31 37.4667C1210.92 37.076 1210.29 37.076 1209.9 37.4667L1210.61 38.1741ZM1215.53 44.5085C1215.92 44.8992 1216.55 44.8992 1216.94 44.5085C1217.33 44.1178 1217.33 43.4845 1216.94 43.0938L1216.23 43.8012L1215.53 44.5085ZM1195.84 47.3181L1196.54 48.0254L1202.17 42.3984L1201.46 41.691L1200.76 40.9836L1195.13 46.6107L1195.84 47.3181ZM1201.46 41.691L1200.76 42.3984L1203.57 45.2119L1204.28 44.5045L1204.98 43.7972L1202.17 40.9836L1201.46 41.691ZM1204.28 44.5045L1204.98 45.2119L1211.31 38.8814L1210.61 38.1741L1209.9 37.4667L1203.57 43.7972L1204.28 44.5045ZM1210.61 38.1741L1209.9 38.8814L1215.53 44.5085L1216.23 43.8012L1216.94 43.0938L1211.31 37.4667L1210.61 38.1741ZM1198.65 26.9199V27.9203H1212.72V26.9199V25.9196H1198.65V26.9199ZM1216.94 31.1402H1215.94V45.2079H1216.94H1217.94V31.1402H1216.94ZM1212.72 49.4282V48.4279H1198.65V49.4282V50.4286H1212.72V49.4282ZM1194.43 45.2079H1195.43V31.1402H1194.43H1193.43V45.2079H1194.43ZM1198.65 49.4282V48.4279C1196.87 48.4279 1195.43 46.9862 1195.43 45.2079H1194.43H1193.43C1193.43 48.0912 1195.77 50.4286 1198.65 50.4286V49.4282ZM1216.94 45.2079H1215.94C1215.94 46.9862 1214.5 48.4279 1212.72 48.4279V49.4282V50.4286C1215.6 50.4286 1217.94 48.0912 1217.94 45.2079H1216.94ZM1212.72 26.9199V27.9203C1214.5 27.9203 1215.94 29.3619 1215.94 31.1402H1216.94H1217.94C1217.94 28.2569 1215.6 25.9196 1212.72 25.9196V26.9199ZM1198.65 26.9199V25.9196C1195.77 25.9196 1193.43 28.2569 1193.43 31.1402H1194.43H1195.43C1195.43 29.3619 1196.87 27.9203 1198.65 27.9203V26.9199ZM1202.87 33.2504H1201.87C1201.87 33.8633 1201.37 34.3602 1200.76 34.3602V35.3605V36.3609C1202.48 36.3609 1203.87 34.9683 1203.87 33.2504H1202.87ZM1200.76 35.3605V34.3602C1200.15 34.3602 1199.65 33.8633 1199.65 33.2504H1198.65H1197.65C1197.65 34.9683 1199.04 36.3609 1200.76 36.3609V35.3605ZM1198.65 33.2504H1199.65C1199.65 32.6375 1200.15 32.1406 1200.76 32.1406V31.1402V30.1399C1199.04 30.1399 1197.65 31.5325 1197.65 33.2504H1198.65ZM1200.76 31.1402V32.1406C1201.37 32.1406 1201.87 32.6375 1201.87 33.2504H1202.87H1203.87C1203.87 31.5325 1202.48 30.1399 1200.76 30.1399V31.1402Z" fill="white"/>
<path d="M1158.17 32.1719H1167.17M1158.17 36.6735H1167.17M1158.17 41.1752H1162.67M1155.92 26.1697H1169.42C1171.08 26.1697 1172.42 27.5133 1172.42 29.1708L1172.42 47.1775C1172.42 48.8349 1171.08 50.1785 1169.42 50.1785L1155.92 50.1784C1154.26 50.1784 1152.91 48.8348 1152.91 47.1773L1152.91 29.1708C1152.91 27.5133 1154.26 26.1697 1155.92 26.1697Z" stroke="white" stroke-width="2.00074" stroke-linecap="round" stroke-linejoin="round"/>
<path d="M1120.65 47.1774C1120.65 46.6249 1120.2 46.177 1119.65 46.177C1119.1 46.177 1118.65 46.6249 1118.65 47.1774H1119.65H1120.65ZM1118.65 53.1796C1118.65 53.7321 1119.1 54.18 1119.65 54.18C1120.2 54.18 1120.65 53.7321 1120.65 53.1796H1119.65H1118.65ZM1120.65 23.1686C1120.65 22.6161 1120.2 22.1682 1119.65 22.1682C1119.1 22.1682 1118.65 22.6161 1118.65 23.1686H1119.65H1120.65ZM1118.65 29.1708C1118.65 29.7233 1119.1 30.1711 1119.65 30.1711C1120.2 30.1711 1120.65 29.7233 1120.65 29.1708H1119.65H1118.65ZM1110.65 39.1744C1111.2 39.1744 1111.65 38.7266 1111.65 38.1741C1111.65 37.6216 1111.2 37.1737 1110.65 37.1737V38.1741V39.1744ZM1104.65 37.1737C1104.09 37.1737 1103.65 37.6216 1103.65 38.1741C1103.65 38.7266 1104.09 39.1744 1104.65 39.1744V38.1741V37.1737ZM1134.66 39.1744C1135.21 39.1744 1135.66 38.7266 1135.66 38.1741C1135.66 37.6216 1135.21 37.1737 1134.66 37.1737V38.1741V39.1744ZM1128.66 37.1737C1128.1 37.1737 1127.66 37.6216 1127.66 38.1741C1127.66 38.7266 1128.1 39.1744 1128.66 39.1744V38.1741V37.1737ZM1107.65 38.1742H1108.65C1108.65 32.0968 1113.57 27.1701 1119.65 27.1701V26.1697V25.1694C1112.47 25.1694 1106.65 30.9918 1106.65 38.1742H1107.65ZM1119.65 26.1697V27.1701C1125.73 27.1701 1130.66 32.0968 1130.66 38.1742H1131.66H1132.66C1132.66 30.9918 1126.83 25.1694 1119.65 25.1694V26.1697ZM1131.66 38.1742H1130.66C1130.66 44.2515 1125.73 49.1782 1119.65 49.1782V50.1786V51.179C1126.83 51.179 1132.66 45.3565 1132.66 38.1742H1131.66ZM1119.65 50.1786V49.1782C1113.57 49.1782 1108.65 44.2515 1108.65 38.1742H1107.65H1106.65C1106.65 45.3565 1112.47 51.179 1119.65 51.179V50.1786ZM1119.65 47.1774H1118.65V53.1796H1119.65H1120.65V47.1774H1119.65ZM1119.65 23.1686H1118.65V29.1708H1119.65H1120.65V23.1686H1119.65ZM1110.65 38.1741V37.1737H1104.65V38.1741V39.1744H1110.65V38.1741ZM1134.66 38.1741V37.1737H1128.66V38.1741V39.1744H1134.66V38.1741ZM1115.15 38.1741H1116.15C1116.15 36.2404 1117.72 34.6728 1119.65 34.6728V33.6724V32.672C1116.61 32.672 1114.15 35.1354 1114.15 38.1741H1115.15ZM1119.65 33.6724V34.6728C1121.59 34.6728 1123.15 36.2404 1123.15 38.1741H1124.15H1125.15C1125.15 35.1354 1122.69 32.672 1119.65 32.672V33.6724ZM1124.15 38.1741H1123.15C1123.15 40.1078 1121.59 41.6754 1119.65 41.6754V42.6757V43.6761C1122.69 43.6761 1125.15 41.2128 1125.15 38.1741H1124.15ZM1119.65 42.6757V41.6754C1117.72 41.6754 1116.15 40.1078 1116.15 38.1741H1115.15H1114.15C1114.15 41.2128 1116.61 43.6761 1119.65 43.6761V42.6757Z" fill="white"/>
<path d="M1246.92 35.9114L1244.13 38.7043C1243.09 39.7473 1242.49 41.1666 1242.5 42.6581C1242.51 44.1497 1243.1 45.5776 1244.19 46.6364C1245.25 47.729 1246.67 48.3156 1248.17 48.3266C1249.69 48.3378 1251.08 47.7718 1252.12 46.7287L1254.91 43.9358M1258.48 40.4367L1261.27 37.6439C1262.32 36.6009 1262.92 35.1816 1262.91 33.6901C1262.89 32.1985 1262.31 30.7706 1261.21 29.7118C1260.16 28.6533 1258.73 28.0666 1257.24 28.0556C1255.75 28.0447 1254.33 28.6104 1253.28 29.6535L1250.49 32.4464M1248.47 42.3346L1256.84 33.956" stroke="white" stroke-width="2.00074" stroke-linecap="round" stroke-linejoin="round"/>
</g>
<defs>
<filter id="filter0_dd_32_634" x="0.00023469" y="3.43449e-05" width="1412" height="995.846" filterUnits="userSpaceOnUse" color-interpolation-filters="sRGB">
<feFlood flood-opacity="0" result="BackgroundImageFix"/>
<feColorMatrix in="SourceAlpha" type="matrix" values="0 0 0 0 0 0 0 0 0 0 0 0 0 0 0 0 0 0 127 0" result="hardAlpha"/>
<feOffset dy="6.08"/>
<feGaussianBlur stdDeviation="9.12"/>
<feComposite in2="hardAlpha" operator="out"/>
<feColorMatrix type="matrix" values="0 0 0 0 0 0 0 0 0 0 0 0 0 0 0 0 0 0 0.1 0"/>
<feBlend mode="normal" in2="BackgroundImageFix" result="effect1_dropShadow_32_634"/>
<feColorMatrix in="SourceAlpha" type="matrix" values="0 0 0 0 0 0 0 0 0 0 0 0 0 0 0 0 0 0 127 0" result="hardAlpha"/>
<feOffset dy="0.76"/>
<feGaussianBlur stdDeviation="0.76"/>
<feComposite in2="hardAlpha" operator="out"/>
<feColorMatrix type="matrix" values="0 0 0 0 0 0 0 0 0 0 0 0 0 0 0 0 0 0 0.06 0"/>
<feBlend mode="normal" in2="effect1_dropShadow_32_634" result="effect2_dropShadow_32_634"/>
<feBlend mode="normal" in="SourceGraphic" in2="effect2_dropShadow_32_634" result="shape"/>
</filter>
<radialGradient id="paint0_radial_32_634" cx="0" cy="0" r="1" gradientUnits="userSpaceOnUse" gradientTransform="translate(706 491.841) rotate(-90) scale(979.159 788.901)">
<stop offset="0.00181269" stop-opacity="0.16"/>
<stop offset="0.00181269" stop-opacity="0"/>
</radialGradient>
<linearGradient id="paint1_linear_32_634" x1="706" y1="12.1645" x2="706" y2="971.517" gradientUnits="userSpaceOnUse">
<stop offset="0.144231"/>
<stop offset="0.730769" stop-color="#666666"/>
</linearGradient>
</defs>
</svg>
