<svg width="110" height="40" viewBox="0 0 110 40" fill="none" xmlns="http://www.w3.org/2000/svg">
<rect width="110" height="40" rx="20" fill="#191818"/>
<path d="M73 24.3198H77.8331C79.3058 24.3198 80.4997 25.466 80.4997 26.8799V32M80.5 8V13.1201C80.5 14.534 79.3061 15.6801 77.8334 15.6801H73.0003M97 24.3198H92.1669C90.6942 24.3198 89.5003 25.466 89.5003 26.8799V32M89.5 8V13.1201C89.5 14.534 90.6939 15.6801 92.1666 15.6801H96.9997" stroke="white" stroke-width="2" stroke-linecap="round"/>
<path d="M26.0073 31.9999H20.0073C18.3505 31.9999 17.0073 30.6568 17.0073 28.9999L17.0074 11C17.0075 9.34314 18.3506 8 20.0074 8H33.5078C35.1646 8 36.5078 9.34315 36.5078 11V19.25M34.75 31.4853V27.2426M34.75 27.2426V23M34.75 27.2426L30.5073 27.2426M34.75 27.2426L38.9926 27.2426" stroke="white" stroke-width="2" stroke-linecap="round" stroke-linejoin="round"/>
</svg>
