<svg width="62" height="21" viewBox="0 0 62 21" fill="none" xmlns="http://www.w3.org/2000/svg">
<g clip-path="url(#clip0_32_585)">
<path d="M1.76278 20.8632C1.14318 20.6793 0.394049 19.9974 0.168357 19.4118C0.00668585 18.9924 0 18.6354 0 10.4224V1.8697L0.246798 1.41602C0.389119 1.1544 0.6785 0.812282 0.930385 0.60786C1.70114 -0.017662 1.51117 5.08858e-05 7.44937 5.08858e-05H12.7079L13.2491 0.244167C13.893 0.53458 14.3429 0.980731 14.5878 1.5717C14.7636 1.99579 14.766 2.13435 14.7428 10.6478L14.7192 19.2933L14.5148 19.639C14.2003 20.1709 13.6255 20.6416 13.0551 20.8343C12.5632 21.0004 12.4499 21.0037 7.37834 20.9989C2.8241 20.9945 2.15062 20.9783 1.76278 20.8632ZM12.7115 19.6305C12.8677 19.5535 13.0957 19.3572 13.2183 19.1944L13.4412 18.8983V10.5605C13.4412 1.34035 13.4758 1.88478 12.8625 1.4625L12.5294 1.23323H7.40364H2.27785L1.94486 1.4625C1.33158 1.88477 1.36615 1.3422 1.36615 10.5431C1.36615 19.5128 1.34337 19.0653 1.82056 19.4675C1.93426 19.5633 2.12642 19.678 2.24759 19.7223C2.38924 19.7742 4.24588 19.7972 7.44775 19.7868C12.0155 19.7719 12.4511 19.759 12.7115 19.6305ZM5.07439 18.0891C4.83206 17.811 4.84367 17.5393 5.10806 17.3006L5.3244 17.1054H7.38006C9.60813 17.1054 9.74891 17.1301 9.86337 17.5418C9.9278 17.7735 9.73024 18.1748 9.51507 18.2493C9.43659 18.2765 8.44644 18.2988 7.31473 18.2988H5.25707L5.07439 18.0891ZM32.4658 20.8794C32.0216 20.7553 31.2794 20.2903 30.9837 19.951C30.8821 19.8345 30.693 19.5314 30.5633 19.2775C30.3569 18.8733 30.3232 18.6922 30.2926 17.8214C30.26 16.8946 30.2706 16.812 30.4494 16.6081L30.6411 16.3893H31.9127H33.1843V9.28319C33.1843 3.15273 33.2028 2.12106 33.3185 1.7693C33.4964 1.22845 34.1669 0.563533 34.7911 0.308886L35.2556 0.119391L45.9204 0.0946945C53.6272 0.0768481 56.7137 0.0950255 57.0483 0.160141C57.9223 0.330265 58.5929 0.797004 58.9858 1.5086C59.1299 1.76957 59.1445 2.32215 59.1853 9.06984L59.2294 16.3495L60.4385 16.3893C61.9365 16.4386 61.9472 16.4452 61.9925 17.3452C62.0742 18.9689 61.4906 20.0729 60.2226 20.6936L59.6701 20.964L46.273 20.979C34.8274 20.9918 32.8161 20.9772 32.4658 20.8794ZM59.5101 19.6462C60.1323 19.434 60.5904 18.7717 60.5936 18.08L60.5956 17.6623L59.3837 17.6495C58.7172 17.6425 56.3713 17.6335 54.1707 17.6296L50.1697 17.6225L49.8672 17.9805C49.7008 18.1774 49.4785 18.382 49.3731 18.4351C49.2333 18.5057 48.3407 18.5325 46.0644 18.5346L42.9471 18.5373L42.6269 18.2361C42.4509 18.0704 42.2354 17.8531 42.1482 17.7533L41.9897 17.5717L36.9921 17.5884C34.2434 17.5976 31.9053 17.6218 31.7962 17.6422C31.6407 17.6713 31.5983 17.7334 31.6 17.9293C31.6058 18.6245 31.9478 19.2192 32.5234 19.5355L32.8759 19.7292L46.069 19.7298C55.1781 19.7304 59.3389 19.7043 59.5102 19.6459L59.5101 19.6462ZM49.0518 16.885L49.4509 16.4291L53.6585 16.4084L57.866 16.3878L57.8426 9.24809L57.8192 2.10839L57.6226 1.85963C57.1925 1.31532 57.9738 1.34845 46.1097 1.37152C35.4567 1.39224 35.3994 1.39321 35.1519 1.55613C35.015 1.64621 34.8136 1.87795 34.7043 2.07111L34.5055 2.42231L34.528 9.38594L34.5505 16.3496L38.649 16.3893C40.9031 16.4112 42.7904 16.4544 42.8429 16.4853C42.8955 16.5162 43.054 16.6952 43.1953 16.8831C43.3365 17.071 43.4918 17.251 43.5404 17.2832C43.589 17.3153 44.7592 17.3415 46.1408 17.3413L48.6527 17.341L49.0518 16.885ZM17.2712 10.7044C16.6748 10.1661 17.3494 9.31836 18.1527 9.59662C18.3882 9.6782 18.5755 10.0916 18.513 10.392C18.4122 10.8773 17.6697 11.0641 17.2712 10.7044ZM20.3561 10.7044C20.2067 10.5696 20.1398 10.4207 20.1398 10.2235C20.1398 10.0262 20.2067 9.87731 20.3561 9.74249C20.8134 9.32973 21.6381 9.61518 21.6381 10.1862C21.6381 10.3547 21.5552 10.5094 21.3805 10.6672C21.0518 10.9639 20.6593 10.9782 20.3561 10.7044ZM23.441 10.7044C22.9708 10.28 23.3007 9.5472 23.962 9.5472C24.194 9.5472 24.321 9.60558 24.4948 9.79199C24.8079 10.1279 24.7933 10.4344 24.4518 10.6937C24.1039 10.958 23.7263 10.962 23.441 10.7044ZM26.5427 10.7046C26.0521 10.2942 26.3742 9.5472 27.0418 9.5472C27.8116 9.5472 28.1162 10.4719 27.449 10.7833C27.0889 10.9514 26.8086 10.927 26.5427 10.7046ZM29.6107 10.7044C29.1413 10.2807 29.4704 9.5472 30.1298 9.5472C30.552 9.5472 30.8054 9.75816 30.865 10.1593C30.9082 10.4496 30.8836 10.5171 30.6703 10.6956C30.3464 10.9666 29.9052 10.9703 29.6107 10.7044Z" fill="white"/>
</g>
<defs>
<clipPath id="clip0_32_585">
<rect width="62" height="21" fill="white"/>
</clipPath>
</defs>
</svg>
