<svg width="14" height="18" viewBox="0 0 14 18" fill="none" xmlns="http://www.w3.org/2000/svg">
<path d="M1 7.85714C1 7.01905 1.675 6.33333 2.5 6.33333H11.5C12.325 6.33333 13 7.01905 13 7.85714V15.4762C13 16.3143 12.325 17 11.5 17H2.5C1.675 17 1 16.3143 1 15.4762V7.85714Z" fill="white"/>
<path d="M2.3125 5.57143C2.3125 3.039 4.31964 1 6.8125 1C8.36535 1 9.72974 1.7912 10.5379 3M2.5 6.33333C1.675 6.33333 1 7.01905 1 7.85714V15.4762C1 16.3143 1.675 17 2.5 17H11.5C12.325 17 13 16.3143 13 15.4762V7.85714C13 7.01905 12.325 6.33333 11.5 6.33333H2.5Z" stroke="white" stroke-width="2" stroke-linecap="round"/>
</svg>
