<svg width="14" height="14" viewBox="0 0 14 14" fill="none" xmlns="http://www.w3.org/2000/svg">
<mask id="mask0_18_3471" style="mask-type:luminance" maskUnits="userSpaceOnUse" x="0" y="0" width="15" height="15">
<path d="M14.0066 0H0V14.0066H14.0066V0Z" fill="white"/>
</mask>
<g mask="url(#mask0_18_3471)">
<path d="M13.9999 7.13436C13.9999 6.56053 13.9522 6.14178 13.8491 5.70752H7.14277V8.29754H11.0793C10.9999 8.94121 10.5713 9.91054 9.61892 10.5619L9.60562 10.6486L11.726 12.2537L11.8729 12.268C13.222 11.0505 13.9999 9.25916 13.9999 7.13436Z" fill="#4285F4"/>
<path d="M7.14275 13.9585C9.07132 13.9585 10.6903 13.338 11.8729 12.2679L9.61891 10.5619C9.01579 10.9729 8.20621 11.2598 7.14275 11.2598C5.2539 11.2598 3.65075 10.0423 3.07927 8.35953L2.9955 8.36653L0.790666 10.0338L0.761833 10.1121C1.93642 12.392 4.34911 13.9585 7.14275 13.9585Z" fill="#34A853"/>
<path d="M3.07931 8.35954C2.92853 7.92534 2.84126 7.45997 2.84126 6.97923C2.84126 6.4984 2.92853 6.03314 3.07138 5.59888L3.06739 5.5064L0.834926 3.81234L0.761882 3.84629C0.27778 4.79238 0 5.8548 0 6.97923C0 8.10364 0.27778 9.16604 0.761882 10.1121L3.07931 8.35954Z" fill="#FBBC05"/>
<path d="M7.14276 2.69862C8.48403 2.69862 9.38871 3.26471 9.90465 3.73779L11.9205 1.8146C10.6824 0.690172 9.07132 0 7.14276 0C4.34911 0 1.93642 1.56644 0.761833 3.84631L3.07134 5.5989C3.65075 3.91612 5.2539 2.69862 7.14276 2.69862Z" fill="#EB4335"/>
</g>
</svg>
