<svg width="128" height="48" viewBox="0 0 128 48" fill="none" xmlns="http://www.w3.org/2000/svg">
<g clip-path="url(#clip0_32_494)">
<path d="M3.63701 47.6872C2.35863 47.2669 0.813011 45.7082 0.347359 44.3698C0.0137944 43.4111 0 42.5952 0 23.8225V4.27361L0.5092 3.23663C0.802839 2.63863 1.3999 1.85664 1.91959 1.38939C3.50983 -0.0403703 3.11788 0.00011631 15.3697 0.00011631H26.2193L27.3359 0.558096C28.6643 1.2219 29.5926 2.24167 30.0979 3.59246C30.4606 4.56181 30.4655 4.87852 30.4176 24.3378L30.3691 44.0989L29.9474 44.889C29.2985 46.1049 28.1124 47.1809 26.9356 47.6212C25.9207 48.0009 25.687 48.0084 15.2232 47.9974C5.82675 47.9875 4.43722 47.9503 3.63701 47.6872ZM26.2267 44.8698C26.5489 44.6936 27.0195 44.245 27.2724 43.8728L27.7322 43.1961V24.1382C27.7322 3.06366 27.8037 4.30807 26.5381 3.34286L25.851 2.8188H15.2754H4.69972L4.01268 3.34286C2.74735 4.30804 2.81868 3.06789 2.81868 24.0985C2.81868 44.6008 2.77167 43.5779 3.75621 44.4971C3.99081 44.7161 4.38729 44.9783 4.63728 45.0796C4.92953 45.1981 8.7602 45.2507 15.3664 45.2269C24.7906 45.193 25.6894 45.1635 26.2267 44.8698ZM10.4696 41.3466C9.96963 40.711 9.99357 40.0898 10.5391 39.5443L10.9854 39.098H15.2267C19.8237 39.098 20.1142 39.1545 20.3503 40.0955C20.4833 40.6251 20.0757 41.5424 19.6317 41.7128C19.4698 41.7749 17.4269 41.8257 15.0919 41.8257H10.8465L10.4696 41.3466ZM66.9843 47.7244C66.0678 47.4406 64.5363 46.3779 63.9262 45.6023C63.7168 45.336 63.3265 44.6433 63.059 44.0629C62.6331 43.139 62.5636 42.725 62.5004 40.7346C62.4331 38.6161 62.4551 38.4275 62.8238 37.9614L63.2195 37.4613H65.8431H68.4667V21.2187C68.4667 7.20625 68.5047 4.84813 68.7435 4.04412C69.1106 2.80789 70.4939 1.28808 71.7818 0.706025L72.7402 0.272894L94.7441 0.216445C110.645 0.175653 117.013 0.217201 117.703 0.366036C119.507 0.75489 120.89 1.82172 121.701 3.44822C121.998 4.04472 122.028 5.30778 122.113 20.7311L122.204 37.3704L124.698 37.4613C127.789 37.574 127.811 37.589 127.904 39.6462C128.073 43.3575 126.869 45.8809 124.253 47.2996L123.113 47.9177L95.4715 47.952C71.8568 47.9813 67.707 47.9479 66.9843 47.7244ZM122.783 44.9056C124.066 44.4206 125.012 42.9068 125.018 41.3256L125.022 40.3709L122.522 40.3417C121.147 40.3256 116.307 40.3052 111.766 40.2962L103.511 40.2799L102.887 41.0982C102.544 41.5483 102.085 42.016 101.868 42.1374C101.579 42.2987 99.7377 42.3601 95.0411 42.3648L88.6095 42.3709L87.9489 41.6825C87.5856 41.3038 87.1412 40.8072 86.9613 40.5789L86.6341 40.1638L76.323 40.202C70.6519 40.223 65.8277 40.2784 65.6027 40.3251C65.282 40.3916 65.1945 40.5334 65.1979 40.9813C65.2099 42.5702 65.9155 43.9297 67.103 44.6525L67.8304 45.0952L95.0507 45.0966C113.845 45.098 122.429 45.0385 122.783 44.9049L122.783 44.9056ZM101.205 38.5943L102.028 37.5522L110.709 37.505L119.391 37.4578L119.342 21.1385L119.294 4.81918L118.888 4.25058C118.001 3.00644 119.613 3.08216 95.1346 3.13491C73.1552 3.18227 73.0369 3.18448 72.5262 3.55687C72.2438 3.76276 71.8282 4.29245 71.6027 4.73397L71.1925 5.53672L71.239 21.4536L71.2854 37.3704L79.7415 37.4613C84.3923 37.5114 88.2862 37.6101 88.3946 37.6807C88.503 37.7513 88.8301 38.1605 89.1215 38.5899C89.4129 39.0194 89.7334 39.4309 89.8337 39.5044C89.934 39.5779 92.3483 39.6376 95.1988 39.6372L100.382 39.6365L101.205 38.5943ZM35.6344 24.4673C34.4039 23.2368 35.7956 21.2991 37.4531 21.9351C37.9389 22.1216 38.3254 23.0665 38.1965 23.7532C37.9885 24.8625 36.4565 25.2894 35.6344 24.4673ZM41.9992 24.4673C41.691 24.1591 41.5528 23.8188 41.5528 23.3679C41.5528 22.9171 41.691 22.5767 41.9992 22.2685C42.9426 21.3251 44.6443 21.9775 44.6443 23.2827C44.6443 23.6678 44.4733 24.0215 44.1127 24.3821C43.4345 25.0603 42.6249 25.0929 41.9992 24.4673ZM48.364 24.4673C47.3938 23.4971 48.0745 21.8222 49.4389 21.8222C49.9176 21.8222 50.1798 21.9556 50.5383 22.3817C51.1843 23.1494 51.1541 23.85 50.4496 24.4428C49.7317 25.0469 48.9527 25.056 48.364 24.4673ZM54.7636 24.4676C53.7514 23.5296 54.416 21.8222 55.7933 21.8222C57.3815 21.8222 58.01 23.9358 56.6334 24.6476C55.8906 25.0317 55.3121 24.976 54.7636 24.4676ZM61.0935 24.4673C60.1251 23.4988 60.8039 21.8222 62.1645 21.8222C63.0357 21.8222 63.5585 22.3044 63.6815 23.2214C63.7705 23.8848 63.7199 24.0391 63.2798 24.447C62.6113 25.0665 61.7011 25.0749 61.0935 24.4673Z" fill="white"/>
</g>
<defs>
<clipPath id="clip0_32_494">
<rect width="127.92" height="48" fill="white"/>
</clipPath>
</defs>
</svg>
